# xmcd
# 
# Track frame offsets:
#     183
#     14805
#     35735
#     57190
#     75773
#     96263
#     121070
#     140493
# 
# Disc length: 2132
# 
# Revision: 15
# Processed by: cddbd v1.5.2PL0 Copyright (c) Steve Scherf et al.
# Submitted via: BonkEnc v1.0.8
# 
DISCID=62085208
DTITLE=New Order - Movement
DYEAR=1981
DGENRE=New Wave
TTITLE0=Dreams Never End
TTITLE1=Truth
TTITLE2=Senses
TTITLE3=Chosen Time
TTITLE4=ICB
TTITLE5=The Him
TTITLE6=Doubts Even Here
TTITLE7=Denial
EXTD=Factory FACD.50\n\nProduced by\tMartin Hannet\nEngineered by\tChris Nagle\nAssisted by\tJohn and Flood\nPublished by\tB Music\nDesigned by\tPeter Saville and Graphica Industria\nAfter a poster by\tFortunato Depero
EXTT0=
EXTT1=
EXTT2=
EXTT3=
EXTT4=
EXTT5=
EXTT6=
EXTT7=
PLAYORDER=
